<?xml version="1.0" encoding="UTF-8"?><svg id="_繧､繝､繝ｼ_1" xmlns="http://www.w3.org/2000/svg" viewBox="0 0 116.99 132.11"><defs><style>.cls-1{fill:#fff;}</style></defs><path class="cls-1" d="M110.49,112.64c-1.93-9.97,.8-34.57-13.51-47.12-14.31-12.53-37.63-22.18-42.29-23.95-4.67-1.77-4.02-5.47-7.72-7.71-3.7-2.26-6.91-10.62-7.72-12.22-.8-1.61-3.7-9.48-6.11-10.77C31.87,6.67,30.42-.88,26.24,.08c-4.18,.97-4.82,10.61-6.75,11.58-1.93,.97-3.38,.8-3.38,.8-.8-1.12-7.24-5.14-8.2-4.66-.97,.48,1.44,6.11,.32,7.71-1.13,1.61-4.5,6.76-4.67,8.85-.16,2.09,.64,3.05-.48,4.02-1.13,.97-3.38,4.34-3.06,4.98,.32,.64,1.93,2.41,1.93,2.41,0,0,.64,2.58,2.57,3.54,1.93,.96,5.79,2.73,6.59,3.54,.8,.8,3.22,9.33,2.58,12.22-.64,2.89,.16,11.26,2.09,15.28,1.93,4.02,6.91,27.49,6.43,30.55-.48,3.05-6.11,21.22-8.2,22.03-2.09,.8-8.36,2.25-8.04,5.95,.32,3.7,5.46,3.22,6.59,3.22s5.47-.81,6.11-1.13c.64-.32,6.11-4.82,6.11-4.82,0,0,10.77,1.45,13.83-.97,3.05-2.41,5.14-8.2,5.14-8.2l3.06-15.75s1.29,11.9,4.82,15.75c2.54,2.77,.81,2.42,.32,2.42s-5.3,1.77-4.02,5.31c.64,2.57,5.63,1.29,6.11,1.44,.48,.16,2.57,.32,2.57,.32,0,0-.16,3.7,4.02,4.18,4.18,.48,7.4,0,8.04,0s9.01-1.13,12.54,0c3.54,1.13,21.7,1.13,30.71-3.7,9-4.82,4.34-11.89-1.45-14.3Zm-77.34,5.46c-1.45,1.77-3.06,.16-4.82,1.61,.16-2.89,5.15-10.94,5.95-11.58,0,0,.32,8.2-1.12,9.97Z"/></svg>