<?xml version="1.0" encoding="UTF-8"?><svg id="" xmlns="http://www.w3.org/2000/svg" viewBox="0 0 439.64 148.25"><defs><style>.cls-1{fill:#fff;}</style></defs><g id=""><g><g><path class="cls-1" d="M166.49,48.53c4.85-4.85,7.75-9.55,10.15-15.05-.35-1.3-.8-2.85-1.7-4.7-2.8,3.05-4.5,6-5.6,8l-2.1-4.15c2.1-2.8,3.4-4.25,5.9-6.95-1.9-2.75-4.15-4.6-5.1-5.4l4.15-2c2.05,2.05,2.8,3.05,3.9,4.55,1.7-1.5,2.85-2.5,5.05-4.1l3.9,2.6c-1.25,.6-3.8,1.75-7.05,4.5,1.3,2.5,4.1,8.15,4.1,19.7,0,8.3-1.35,14.55-2.05,17.55l-5.1-.35c.3-1.25,.5-2.05,.5-3.05,0-2.75-2-5.9-4.65-8.25-.6,.9-.9,1.3-2.1,2.85l-2.2-5.75Zm10.05,7.35c.5-2.2,1.4-6,1.4-11.95,0-2.7-.2-4.05-.35-5.4-2.15,5.85-4.7,9.8-5.85,11.5,2.6,2.7,3.9,4.55,4.8,5.85Zm17.9-37.45c-.4,3.05-.4,4.15-.45,5.6,.45,0,4.3-.05,6.45-.1-.15-3.3-.2-4.5-.45-6.45l4.3,.6c.05,2.05,.05,2.45,.15,5.85,4.5,.05,5.2,.1,9.45,.2l-1.1,4.35c-2-.4-4.35-.9-8.35-1.2,0,.8-.1,5.05-.1,5.45l-4.2,.55c.25-2.8,.3-4.1,.35-6.25-4.15-.1-5.35,0-6.5,.1,.05,1.6,.05,2.8,.5,6.05h-4.35c0-.85,0-1.3-.1-5.7-2.5,.3-4.3,.55-7.95,1.25l.8-4.3c.2,0,6.1-.25,7.15-.3,0-1.65,0-2.4,.2-6.55l4.2,.85Zm-8.5,44.35c-.25-5.6-.4-11.2-.4-16.8,0-3.6,.05-4.85,.15-9.65,2.4-.2,8.9-.7,16.9-.7,2.8,0,5,.05,7.15,.1,.2,9.9-.3,15.5-.7,20.6,.85-.15,1.25-.2,3-.55l-.6,4.5c-6.15,.4-10.9,.4-12.1,.4-2.85,0-4.6-.05-7.3-.15l-.5-3.95c1.25,.15,1.65,.2,3.65,.35,.3-5.3,.35-6.5,.35-8.45-.95,0-2.5-.1-5.9,.05,.15,6.45,.55,11.55,.8,14.25h-4.5Zm3.75-23.2c-.05,2.9-.05,3.5-.05,5.95,2.95-.15,4.8-.2,5.95-.25,0-1,0-2.45-.15-6.25-2.55,.15-3.9,.3-5.75,.55Zm13.95,9.75c-1.4-.25-2.85-.45-4.25-.6-.1,4.2-.1,4.65-.25,8.35,2.6,0,4.2-.1,5.35-.2,.75-4.7,1.15-9.1,1.15-13.85,0-1.65-.05-2.95-.1-3.95-2.75-.2-3.45-.2-6.3-.2,.05,1.7,.1,2.55,.15,6.4,.85,0,3.15,.1,5.05,.2l-.8,3.85Z"/><path class="cls-1" d="M250.29,58.68c11.85-7.25,12.65-15.6,12.65-18.65,0-6.05-4.75-9.9-11.5-9.9-1.35,0-2.35,.15-2.75,.25-4.25,16.7-11.45,22.95-14.65,25.15l-.85-.65c.35-9.35-4.05-11.8-4.8-12.2-.9,.9-1.25,1.35-2.45,2.75l-2.2-5.45c4.2-3.6,11.6-9.6,20.8-12.35,.65-3.75,.85-6,1.05-8.75l4.85,2.1c-.45,2.95-.6,3.95-.95,5.75,.65-.05,1.3-.1,2.4-.1,10.2,0,16.15,4.95,16.15,13.55,0,11.6-9.5,18.75-12.5,21l-5.25-2.5Zm-15.5-9.75c4.95-4.35,7.35-10.75,8.95-17.35-6.2,2.25-10.5,6.25-13.85,9.45,2.1,2.15,4.1,5.35,4.9,7.9Z"/><path class="cls-1" d="M321.24,57.33c-2.45,.35-7.5,1.05-14.5,1.05-5.45,0-14-.4-21.2-3.15l.2-5.3c2.5,1.35,4.1,1.95,6.7,2.6,2.1-4.65,6.4-12,15-20.45-5.4-2.4-10.4-3.6-16.3-3.6-1.85,0-3.1,.15-4.4,.25l2.35-5.25c11.15,.55,19.95,3.25,27.25,7.7l-1.55,5.35c-.8-.65-1.7-1.35-3.75-1.35-1.3,0-4.1,0-9,5.75-3.95,4.7-5.55,8.75-6.35,12.25,1.9,.3,4.75,.75,9.15,.75,8.05,0,14.55-1.6,17.25-2.25l-.85,5.65Z"/><path class="cls-1" d="M374.44,30.08c-15.4,9.4-23.15,20-23.15,23.15s5.7,3.2,8.05,3.2c4.95,0,9.6-.65,14.5-1.65l-.55,5.5c-2,.2-5.6,.55-10.4,.55-11.6,0-15.9-2.15-15.9-6.75,0-3.9,4.45-9.5,8.65-14.2-3.75-9.1-9.85-16.5-11.65-18.65l5.4-1.6c1.25,1.95,5.6,8.75,8.9,17.4,2.2-2.3,5.3-5.45,11.2-10.1l4.95,3.15Z"/><path class="cls-1" d="M426.54,19.83c.1,2.75,.1,3.95,.1,9.65,5-.1,5.55-.1,11-.1l-1.3,4.6c-3.55-.65-5.85-.9-9.65-1.1,0,10.35-.05,11.5-.15,14.7,2.15,.65,5.6,1.95,9.65,5.2l-2.25,5.45c-1.2-1.65-3.05-4.3-7.75-6.25-.3,2.9-1.15,9.55-6.15,9.55-1.6,0-4.15-.8-6.7-5.2l2.3-3.85c1.3,3.35,3.05,4.05,3.8,4.05,1.65,0,2.15-2.75,2.5-5.7-.45-.05-1.1-.15-2.2-.15-1.2,0-6.05,0-9.25,3.5l-.3-5.15c1.45-.75,4.8-2.45,9.55-2.45,1,0,1.7,.05,2.55,.15,.1-1.75,.2-3.15,.2-6.4s-.1-5.6-.15-7.45c-2.75,.1-4.05,.25-6,.5-8.2,4.9-13.7,14.8-13.7,21.9,0,2.25,.4,3.75,.75,5h-5.15c-.4-2.8-1.15-8.6-1.15-16.5s.65-15.5,1.7-23.15l5.05,1.15c-.7,2.65-2.75,10.7-2.75,20.45,0,3.2,.2,5.2,.35,6.75,3.2-6.15,6.2-10.2,10.75-14.95-3.2,.65-4.2,.9-6,1.4l1.05-5.15c4.95-.3,9.9-.55,14.9-.75-.2-3.45-.65-7.2-1.15-10.65l5.55,.95Zm5.6,6.65c-1.4-1.55-2.4-2.9-3.75-5l2.4-2.15c.85,2.05,1.85,3.75,3.9,5.6l-2.55,1.55Zm4.75-.45c-.55-2.65-1.6-4.4-3.2-6.2l3-1.35c1.35,1.95,2.2,3.6,2.95,6.05l-2.75,1.5Z"/></g><g><path class="cls-1" d="M182.9,110.02c2.52-.14,3.2-.22,4.82-.25,.07-1.15,.14-2.27,.14-4.5s-.07-3.53-.14-4.57c-1.48,.22-2.34,.36-3.92,.72l.58-3.31c2.27-.18,5.62-.4,10.51-.4,2.52,0,4.21,.07,5.98,.11l-.83,2.99c-.68-.11-1.8-.32-3.2-.43,.14,4.61,.14,5.04,.22,9.21,1.58,0,1.94,0,5.22,.11l-.86,3.1c-1.91-.4-2.7-.47-4.32-.65,.07,5.54,.07,11.23-.04,16.81l-3.56,.47c.76-8.42,.79-13.79,.79-17.46-1.55-.04-2.41-.04-4.14,.07-.54,5.25-1.55,10.83-5.69,17.46l-4.28-.9c2.05-1.91,3.82-4.1,5.44-8.5-1.76,1.12-5.15,3.06-9.9,3.38l-.29-2.77c.76,.07,1.19,.07,2.02,.07,.54-2.92,.86-5.51,.86-9.18-1.3,.04-2.09,.11-3.82,.47-.04,1.12-.07,2.09-.07,3.46,0,3.78,.25,7.24,.76,10.98h-3.35c-.07-1.98-.11-3.6-.11-7.38,0-2.81,.04-3.56,.07-4.68-1.19,1.66-1.51,2.12-2.34,3.13l-1.37-3.78c3.78-4.07,5.26-7.02,6.62-11.95-2.52,.22-4.39,.61-5.83,.97l.58-3.1c5.58-.43,9.14-.5,13.43-.43l-.61,3.02c-1.12-.18-3.46-.65-6.48-.5l1.37,1.01c-.68,2.52-1.4,4.5-2.52,6.77,1.22-.07,2.27-.14,3.49-.14s2.09,.04,2.77,.07c-.04,5.08-.25,7.81-.65,11.66,.9-.25,3.64-1.01,6.01-3.06,.58-2.05,.83-3.38,1.19-5.83-.76,.11-2.59,.36-5.15,.94l.61-3.2Zm7.78-8.75c0,2.27-.04,3.53-.32,8.39,.76-.04,3.35-.07,3.89-.07-.07-3.67-.11-4.32-.4-9.32-2.48,0-3.82,.14-4.64,.25l1.48,.76Z"/><path class="cls-1" d="M285.05,127.27c3.56-1.58,8.39-4.28,11.01-10.26-2.02,.18-4.82,.61-7.88,1.26l.65-3.46c4.14-.18,5.69-.22,8.17-.29,.58-1.84,.94-3.35,1.33-5.76l3.02,1.44c-.5,2.05-.83,3.02-1.3,4.28,.68,0,3.38,0,3.64,.04,1.87-2.38,3.6-3.74,4.39-4.39-2.66,0-4-.07-5.4-.18-.07-1.26-.18-2.81-.18-5.04,0-1.37,.04-2.38,.07-3.35-1.8,.07-2.02,.07-3.96,.18l.79,1.33c-3.28,5.51-7.27,7.99-10.08,9.43l-3.13-2.45c1.66-.47,7.67-2.23,11.09-8.24-2.63,.18-3.67,.25-7.31,.68,.07,1.58,.14,2.41,.4,4.07h-3.56c-.04-1.01-.11-2.09-.11-3.56,0-1.37,.07-2.45,.11-3.17,1.87-.14,8.24-.54,13.07-.54,0-1.33-.07-2.41-.14-3.35l3.46,.65c-.04,1.37-.07,1.8-.11,2.66,5.72,0,9.25,.14,13.43,.36-.25,1.91-.61,3.53-1.48,5.83l-3.74-.4c.79-1.26,1.08-1.94,1.44-3.31-1.33-.04-4.5-.22-7.02-.22-.18,.9-.4,2.12-.4,3.92,0,1.12,.07,1.87,.14,2.34,3.17,.07,6.19-.04,10.73-1.04l-.32,3.13c-4.28-.04-8.35,.9-10.62,4.64,.54,0,1.62,.04,2.45,.07-.36,1.4-1.04,4-1.04,7.59,0,1.33,.11,2.27,.18,2.99,.68,.04,1.44,.07,2.52,.07,2.2,0,3.6-.18,4.57-.29-.54-1.48-.72-4.25-.72-5.11,0-1.12,.04-2.52,.25-3.6h1.33c-.18,.72-.47,1.84-.47,3.35,0,2.66,1.12,5.15,2.7,5.15,.36,0,.68-.11,1.15-.25l-.36,3.35c-2.12,.11-4.57,.29-7.96,.29-2.2,0-3.92-.07-5.62-.14-.11-1.44-.32-3.56-.32-6.66,0-2.16,.11-3.28,.18-4.5-.79-.04-2.74-.11-4.97,0-1.58,3.42-4.54,8.93-10.26,12.56l-3.82-2.12Z"/><path class="cls-1" d="M426.14,129.28c.94-6.01,.97-12.38,.86-17.96-2.52,0-3.6,.07-5,.18-.18,4.54-.68,10.8-4.97,17.35l-3.71-.9c5.11-5.94,5.65-12.17,5.83-14.51-2.23,1.08-6.51,2.45-10.33,2.45l-.22-2.56c1.37,.07,2.38,.07,3.78-.04,.72-2.92,.83-4.46,.94-6.98-1.69-.07-3.13-.04-5.36,.22-.04,1.19-.07,6.98-.18,8.28-.47,5.47-1.87,10.4-3.42,13.89l-3.42-.76c3.96-7.6,4.43-13.43,4.43-19.76,0-1.73-.07-2.81-.11-3.85,1.4-.11,3.02-.25,5.58-.25,2.16,0,3.49,.11,4.79,.18,.04,.83,.11,1.73,.11,3.28,0,2.81-.18,4.82-.32,6.16,1.51-.29,2.59-.65,3.82-1.37,.07-1.08,.11-2.16,.11-3.82,0-3.82-.25-6.73-.4-8.75l2.74,.97c2.92-1.98,4.57-2.95,7.74-4.54l3.13,2.52c-3.13,.58-7.38,2.3-10.62,3.71,.14,3.56,.14,6.19,.11,6.77,1.51-.11,4.43-.32,12.49-.32l-.58,3.06c-2.23-.4-3.31-.47-4.46-.54,.14,8.5,.18,9.43,.18,10.58,0,2.48-.07,4.86-.11,6.98l-3.42,.32Zm-23.29-31.14c1.8-.07,4.39-.25,7.85-.22,3.42,0,5.83,.11,7.59,.22l-.72,2.63c-1.26-.22-3.67-.58-6.88-.58-4.32,0-7.13,.68-8.39,1.01l.54-3.06Z"/></g><rect class="cls-1" x="163.26" y="79.07" width="271.9" height="1"/><path class="cls-1" d="M108.26,104.71c-1.27-6.55,.53-22.7-8.87-30.93-9.39-8.23-24.7-14.57-27.76-15.73-3.06-1.16-2.64-3.59-5.07-5.06-2.43-1.48-4.54-6.97-5.07-8.03-.53-1.05-2.43-6.23-4.01-7.07-.85-2.75-1.79-7.7-4.54-7.07-2.75,.64-3.17,6.97-4.43,7.6-1.27,.64-2.22,.53-2.22,.53-.53-.74-4.75-3.37-5.38-3.06-.63,.31,.95,4.01,.21,5.06-.74,1.06-2.96,4.44-3.06,5.81-.1,1.37,.42,2-.32,2.64-.74,.64-2.22,2.85-2.01,3.27,.21,.42,1.27,1.58,1.27,1.58,0,0,.42,1.69,1.69,2.32,1.27,.63,3.8,1.79,4.33,2.32,.53,.53,2.11,6.12,1.69,8.02-.42,1.9,.11,7.39,1.37,10.03,1.26,2.64,4.54,18.05,4.22,20.06-.32,2-4.01,13.93-5.38,14.46-1.37,.53-5.49,1.47-5.28,3.91,.21,2.43,3.59,2.11,4.33,2.11s3.59-.53,4.01-.74c.42-.21,4.01-3.17,4.01-3.17,0,0,7.07,.95,9.08-.63,2.01-1.58,3.37-5.38,3.37-5.38l2.01-10.34s.85,7.81,3.16,10.34c1.66,1.82,.53,1.59,.21,1.59s-3.48,1.16-2.64,3.48c.42,1.69,3.69,.84,4.01,.95,.32,.11,1.69,.21,1.69,.21,0,0-.1,2.43,2.64,2.75,2.75,.32,4.86,0,5.28,0s5.91-.74,8.24,0c2.32,.74,14.25,.74,20.16-2.43,5.91-3.16,2.85-7.81-.95-9.39Zm-50.78,3.59c-.95,1.16-2.01,.1-3.17,1.06,.1-1.9,3.38-7.18,3.91-7.6,0,0,.21,5.38-.74,6.54Z"/><path class="cls-1" d="M74.12,148.25C33.25,148.25,0,115,0,74.12S33.25,0,74.12,0s74.12,33.25,74.12,74.12-33.25,74.12-74.12,74.12Zm0-139.31C38.18,8.93,8.93,38.18,8.93,74.12s29.24,65.19,65.19,65.19,65.19-29.24,65.19-65.19S110.07,8.93,74.12,8.93Z"/></g></g></svg>