<?xml version="1.0" encoding="UTF-8"?><svg xmlns="http://www.w3.org/2000/svg" viewBox="0 0 150 61.51"><defs><style>.cls-1{fill:#fff;}</style></defs><g><path class="cls-1" d="M0,17.05c2.66-2.66,4.26-5.24,5.57-8.27-.19-.71-.44-1.57-.93-2.58-1.54,1.67-2.47,3.29-3.08,4.39L.41,8.32c1.15-1.54,1.87-2.33,3.24-3.82C2.61,2.99,1.37,1.98,.85,1.54L3.13,.44c1.13,1.13,1.54,1.67,2.14,2.5,.93-.82,1.57-1.37,2.77-2.25l2.14,1.43c-.69,.33-2.09,.96-3.87,2.47,.71,1.37,2.25,4.48,2.25,10.82,0,4.56-.74,7.99-1.13,9.64l-2.8-.19c.16-.69,.27-1.13,.27-1.68,0-1.51-1.1-3.24-2.55-4.53-.33,.49-.49,.71-1.15,1.56l-1.21-3.16Zm5.52,4.04c.27-1.21,.77-3.3,.77-6.56,0-1.48-.11-2.22-.19-2.97-1.18,3.21-2.58,5.38-3.21,6.32,1.43,1.48,2.14,2.5,2.64,3.21ZM15.35,.52c-.22,1.67-.22,2.28-.25,3.07,.25,0,2.36-.03,3.54-.05-.08-1.81-.11-2.47-.25-3.54l2.36,.33c.03,1.13,.03,1.35,.08,3.21,2.47,.03,2.86,.05,5.19,.11l-.6,2.39c-1.1-.22-2.39-.49-4.59-.66,0,.44-.05,2.77-.05,2.99l-2.31,.3c.14-1.54,.16-2.25,.19-3.43-2.28-.06-2.94,0-3.57,.05,.03,.88,.03,1.54,.27,3.32h-2.39c0-.47,0-.71-.05-3.13-1.37,.17-2.36,.3-4.37,.69l.44-2.36c.11,0,3.35-.14,3.93-.16,0-.91,0-1.32,.11-3.6l2.31,.47Zm-4.67,24.36c-.14-3.08-.22-6.15-.22-9.23,0-1.98,.03-2.66,.08-5.3,1.32-.11,4.89-.38,9.28-.38,1.54,0,2.75,.03,3.93,.05,.11,5.44-.16,8.51-.38,11.31,.47-.08,.69-.11,1.65-.3l-.33,2.47c-3.38,.22-5.99,.22-6.65,.22-1.57,0-2.53-.03-4.01-.08l-.27-2.17c.69,.08,.91,.11,2,.19,.16-2.91,.19-3.57,.19-4.64-.52,0-1.37-.06-3.24,.03,.08,3.54,.3,6.34,.44,7.83h-2.47Zm2.06-12.74c-.03,1.59-.03,1.92-.03,3.27,1.62-.08,2.64-.11,3.27-.14,0-.55,0-1.35-.08-3.43-1.4,.08-2.14,.17-3.16,.3Zm7.66,5.35c-.77-.14-1.57-.25-2.33-.33-.05,2.31-.05,2.55-.14,4.59,1.43,0,2.31-.06,2.94-.11,.41-2.58,.63-5,.63-7.61,0-.91-.03-1.62-.05-2.17-1.51-.11-1.89-.11-3.46-.11,.03,.93,.05,1.4,.08,3.51,.47,0,1.73,.05,2.77,.11l-.44,2.11Z"/><path class="cls-1" d="M46.02,22.63c6.51-3.98,6.95-8.57,6.95-10.24,0-3.32-2.61-5.44-6.32-5.44-.74,0-1.29,.08-1.51,.14-2.33,9.17-6.29,12.6-8.05,13.81l-.47-.36c.19-5.13-2.22-6.48-2.64-6.7-.49,.49-.69,.74-1.35,1.51l-1.21-2.99c2.31-1.98,6.37-5.27,11.42-6.78,.36-2.06,.47-3.29,.58-4.81l2.66,1.15c-.25,1.62-.33,2.17-.52,3.16,.36-.03,.71-.05,1.32-.05,5.6,0,8.87,2.72,8.87,7.44,0,6.37-5.22,10.3-6.86,11.53l-2.88-1.37Zm-8.51-5.35c2.72-2.39,4.04-5.9,4.92-9.53-3.4,1.24-5.77,3.43-7.61,5.19,1.15,1.18,2.25,2.94,2.69,4.34Z"/><path class="cls-1" d="M84.98,21.88c-1.35,.19-4.12,.58-7.96,.58-2.99,0-7.69-.22-11.64-1.73l.11-2.91c1.37,.74,2.25,1.07,3.68,1.43,1.15-2.55,3.51-6.59,8.24-11.23-2.97-1.32-5.71-1.98-8.95-1.98-1.02,0-1.7,.08-2.42,.14l1.29-2.88c6.12,.3,10.96,1.78,14.96,4.23l-.85,2.94c-.44-.36-.93-.74-2.06-.74-.71,0-2.25,0-4.94,3.16-2.17,2.58-3.05,4.81-3.49,6.73,1.04,.16,2.61,.41,5.02,.41,4.42,0,7.99-.88,9.47-1.24l-.47,3.1Z"/><path class="cls-1" d="M114.2,6.92c-8.46,5.16-12.71,10.98-12.71,12.71s3.13,1.76,4.42,1.76c2.72,0,5.27-.36,7.96-.91l-.3,3.02c-1.1,.11-3.07,.3-5.71,.3-6.37,0-8.73-1.18-8.73-3.71,0-2.14,2.44-5.22,4.75-7.8-2.06-5-5.41-9.06-6.4-10.24l2.97-.88c.69,1.07,3.08,4.81,4.89,9.56,1.21-1.26,2.91-2.99,6.15-5.55l2.72,1.73Z"/><path class="cls-1" d="M142.81,1.29c.06,1.51,.06,2.17,.06,5.3,2.75-.06,3.05-.06,6.04-.06l-.71,2.53c-1.95-.36-3.21-.49-5.3-.6,0,5.68-.03,6.32-.08,8.07,1.18,.36,3.08,1.07,5.3,2.86l-1.24,2.99c-.66-.91-1.67-2.36-4.26-3.43-.17,1.59-.63,5.24-3.38,5.24-.88,0-2.28-.44-3.68-2.86l1.26-2.11c.71,1.84,1.67,2.22,2.09,2.22,.91,0,1.18-1.51,1.37-3.13-.25-.03-.6-.08-1.21-.08-.66,0-3.32,0-5.08,1.92l-.16-2.83c.8-.41,2.64-1.35,5.24-1.35,.55,0,.93,.03,1.4,.08,.05-.96,.11-1.73,.11-3.51s-.06-3.08-.08-4.09c-1.51,.06-2.22,.14-3.29,.27-4.5,2.69-7.52,8.13-7.52,12.03,0,1.24,.22,2.06,.41,2.75h-2.83c-.22-1.54-.63-4.72-.63-9.06s.36-8.51,.93-12.71l2.77,.63c-.38,1.46-1.51,5.88-1.51,11.23,0,1.76,.11,2.86,.19,3.71,1.76-3.38,3.4-5.6,5.9-8.21-1.76,.36-2.31,.49-3.3,.77l.58-2.83c2.72-.16,5.44-.3,8.18-.41-.11-1.89-.36-3.95-.63-5.85l3.05,.52Zm3.08,3.65c-.77-.85-1.32-1.59-2.06-2.75l1.32-1.18c.47,1.13,1.02,2.06,2.14,3.08l-1.4,.85Zm2.61-.25c-.3-1.46-.88-2.42-1.76-3.41l1.65-.74c.74,1.07,1.21,1.98,1.62,3.32l-1.51,.82Z"/></g><g><path class="cls-1" d="M9.98,50.82c1.38-.08,1.76-.12,2.65-.14,.04-.63,.08-1.25,.08-2.47s-.04-1.94-.08-2.51c-.81,.12-1.28,.2-2.15,.4l.32-1.82c1.25-.1,3.08-.22,5.77-.22,1.38,0,2.31,.04,3.28,.06l-.45,1.64c-.38-.06-.99-.18-1.76-.24,.08,2.53,.08,2.77,.12,5.06,.87,0,1.07,0,2.87,.06l-.47,1.7c-1.05-.22-1.48-.26-2.37-.36,.04,3.04,.04,6.17-.02,9.23l-1.96,.26c.42-4.63,.43-7.57,.43-9.59-.85-.02-1.32-.02-2.27,.04-.3,2.89-.85,5.95-3.12,9.59l-2.35-.49c1.13-1.05,2.1-2.25,2.98-4.67-.97,.61-2.83,1.68-5.44,1.86l-.16-1.52c.42,.04,.65,.04,1.11,.04,.3-1.6,.47-3.02,.47-5.04-.71,.02-1.15,.06-2.1,.26-.02,.61-.04,1.15-.04,1.9,0,2.08,.14,3.97,.42,6.03h-1.84c-.04-1.09-.06-1.98-.06-4.05,0-1.54,.02-1.96,.04-2.57-.65,.91-.83,1.17-1.28,1.72l-.75-2.08c2.08-2.23,2.89-3.85,3.64-6.56-1.38,.12-2.41,.34-3.2,.53l.32-1.7c3.06-.24,5.02-.28,7.37-.24l-.34,1.66c-.61-.1-1.9-.36-3.56-.28l.75,.55c-.38,1.38-.77,2.47-1.38,3.72,.67-.04,1.25-.08,1.92-.08s1.15,.02,1.52,.04c-.02,2.79-.14,4.29-.36,6.4,.49-.14,2-.55,3.3-1.68,.32-1.13,.45-1.86,.65-3.2-.42,.06-1.42,.2-2.83,.51l.34-1.76Zm4.27-4.8c0,1.25-.02,1.94-.18,4.61,.42-.02,1.84-.04,2.13-.04-.04-2.02-.06-2.37-.22-5.12-1.36,0-2.1,.08-2.55,.14l.81,.42Z"/><path class="cls-1" d="M66.08,60.29c1.96-.87,4.61-2.35,6.05-5.63-1.11,.1-2.65,.34-4.33,.69l.36-1.9c2.27-.1,3.12-.12,4.49-.16,.32-1.01,.51-1.84,.73-3.16l1.66,.79c-.28,1.13-.45,1.66-.71,2.35,.38,0,1.86,0,2,.02,1.03-1.3,1.98-2.06,2.41-2.41-1.46,0-2.19-.04-2.97-.1-.04-.69-.1-1.54-.1-2.77,0-.75,.02-1.3,.04-1.84-.99,.04-1.11,.04-2.17,.1l.43,.73c-1.8,3.02-3.99,4.39-5.53,5.18l-1.72-1.34c.91-.26,4.21-1.23,6.09-4.53-1.44,.1-2.02,.14-4.01,.38,.04,.87,.08,1.32,.22,2.23h-1.96c-.02-.55-.06-1.15-.06-1.96,0-.75,.04-1.34,.06-1.74,1.03-.08,4.53-.3,7.18-.3,0-.73-.04-1.32-.08-1.84l1.9,.36c-.02,.75-.04,.99-.06,1.46,3.14,0,5.08,.08,7.37,.2-.14,1.05-.34,1.94-.81,3.2l-2.06-.22c.43-.69,.59-1.07,.79-1.82-.73-.02-2.47-.12-3.85-.12-.1,.49-.22,1.17-.22,2.15,0,.61,.04,1.03,.08,1.28,1.74,.04,3.4-.02,5.89-.57l-.18,1.72c-2.35-.02-4.59,.49-5.83,2.55,.3,0,.89,.02,1.34,.04-.2,.77-.57,2.19-.57,4.17,0,.73,.06,1.25,.1,1.64,.38,.02,.79,.04,1.38,.04,1.21,0,1.98-.1,2.51-.16-.3-.81-.4-2.33-.4-2.81,0-.61,.02-1.38,.14-1.98h.73c-.1,.4-.26,1.01-.26,1.84,0,1.46,.61,2.83,1.48,2.83,.2,0,.38-.06,.63-.14l-.2,1.84c-1.17,.06-2.51,.16-4.37,.16-1.21,0-2.15-.04-3.08-.08-.06-.79-.18-1.96-.18-3.66,0-1.19,.06-1.8,.1-2.47-.43-.02-1.5-.06-2.73,0-.87,1.88-2.49,4.9-5.63,6.9l-2.1-1.17Z"/><path class="cls-1" d="M143.56,61.4c.51-3.3,.53-6.8,.47-9.86-1.38,0-1.98,.04-2.75,.1-.1,2.49-.38,5.93-2.73,9.53l-2.04-.49c2.81-3.26,3.1-6.68,3.2-7.97-1.23,.59-3.58,1.34-5.67,1.34l-.12-1.4c.75,.04,1.3,.04,2.08-.02,.4-1.6,.45-2.45,.51-3.83-.93-.04-1.72-.02-2.95,.12-.02,.65-.04,3.83-.1,4.55-.26,3-1.03,5.71-1.88,7.63l-1.88-.42c2.17-4.17,2.43-7.37,2.43-10.85,0-.95-.04-1.54-.06-2.12,.77-.06,1.66-.14,3.06-.14,1.19,0,1.92,.06,2.63,.1,.02,.45,.06,.95,.06,1.8,0,1.54-.1,2.65-.18,3.38,.83-.16,1.42-.36,2.1-.75,.04-.59,.06-1.19,.06-2.1,0-2.1-.14-3.7-.22-4.8l1.5,.53c1.6-1.09,2.51-1.62,4.25-2.49l1.72,1.38c-1.72,.32-4.05,1.27-5.83,2.04,.08,1.96,.08,3.4,.06,3.72,.83-.06,2.43-.18,6.86-.18l-.32,1.68c-1.23-.22-1.82-.26-2.45-.3,.08,4.67,.1,5.18,.1,5.81,0,1.36-.04,2.67-.06,3.83l-1.88,.18Zm-12.79-17.1c.99-.04,2.41-.14,4.31-.12,1.88,0,3.2,.06,4.17,.12l-.4,1.44c-.69-.12-2.02-.32-3.78-.32-2.37,0-3.91,.38-4.61,.55l.3-1.68Z"/></g><rect class="cls-1" x=".13" y="33.6" width="149.75" height="1"/></svg>